<svg xmlns="http://www.w3.org/2000/svg" width="520.9" height="148" viewBox="0 0 137.8 39.2"><defs><clipPath id="a" clipPathUnits="userSpaceOnUse"><path d="M0 500h1024V0H0Z"/></clipPath></defs><path fill="#eeeeec" paint-order="markers stroke fill" d="M0 0h137.8v39.2H0z"/><g clip-path="url(#a)" transform="matrix(.10872 0 0 -.10872 -8.4 47.2)" fill="#275697"><path d="M138.3 387.5a14.6 14.6 0 0 1-14.6-14.6V135.4a14.6 14.6 0 0 1 14.6-14.9H266V224h-34.8v40H266v29.7c0 34.6 21.1 53.6 51.8 53.6a279 279 0 0 0 31.1-1.7v-36h-21.4c-16.8 0-20-8-20-19.8V264h40l-5.4-40.1h-34.5V120.5h34.5a13 13 0 0 0-6 5.9 36.5 36.5 0 0 0-4 18.5 36 36 0 0 0 4 18.5c2.4 4.4 5.8 6.8 10.4 6.8 2.2 0 4-.7 5.6-1.7a14.6 14.6 0 0 0 4.6-5.6h.5a138.7 138.7 0 0 0-.5 9.2v16.3h11.7v-67.9h7.3a14.6 14.6 0 0 1 14.6 14.6V373a14.6 14.6 0 0 1-14.6 14.6zM333 203h11.4l.5-1a133.9 133.9 0 0 0-7.5-20.9h-9c2 7.3 3.4 14.6 4.3 22zm17.3-43c-2 0-3.7-1.2-4.7-4-1-2.4-1.4-6.3-1.4-11.4 0-4.8.5-8.7 1.4-11.4 1-2.4 2.5-3.7 5-3.7a4.9 4.9 0 0 1 4.8 3c.7 2 1.4 5.6 1.4 10.7v1.4c0 5.6-.5 9.8-1.4 12.2a5 5 0 0 1-4.9 3.2zm7.3-33.1a12.9 12.9 0 0 0-6.4-6.4h8.6l-2 6.4z"/></g><g style="line-height:1.25;-inkscape-font-specification:'URW Gothic L Semi-Bold';font-variant-ligatures:normal;font-variant-caps:normal;font-variant-numeric:normal;font-feature-settings:normal;text-align:start" font-weight="700" font-size="8.3" font-family="Open Sans Condensed" letter-spacing="0" word-spacing="0" fill="#fff" stroke-width=".5"><path d="M-4.3 9.5V6.8l-.1-.7q-.1-.3-.4-.3-.4 0-.5.4-.2.3-.2 1.2v2.1h-1V5h.8l.1.6h.1q.1-.3.4-.5l.6-.2q.7 0 1 .5.3.4.3 1.2v3zM1 7.3Q1 8.3.5 9q-.5.6-1.3.6-.5 0-.9-.3t-.6-.8q-.2-.5-.2-1.2 0-1.1.5-1.7.4-.7 1.2-.7.8 0 1.3.7.5.6.5 1.7zm-2.4 0 .1 1q.2.4.5.4.7 0 .7-1.4 0-.7-.2-1-.1-.4-.5-.4-.3 0-.5.3l-.1 1zm4.7 1.4.5-.1v.8q-.3.2-.8.2-.6 0-.9-.3-.3-.4-.3-1.1V5.9h-.4v-.5L2 5l.2-1H3v1h.8v1H3v2.3q0 .5.4.5z" style="-inkscape-font-specification:'Open Sans Condensed, Bold'" transform="translate(14 5.4)"/></g><g style="line-height:1.10099995;-inkscape-font-specification:'Open Sans Condensed, Bold Condensed';font-variant-ligatures:normal;font-variant-caps:normal;font-variant-numeric:normal;font-feature-settings:normal;text-align:start" font-weight="700" font-stretch="condensed" font-size="13.1" font-family="Open Sans Condensed" letter-spacing="0" word-spacing="0" fill="#275697" stroke-width=".8"><path d="m27.8 8.6 1.3-3.7h1.8l-2.2 5.6v3.7H27v-3.6l-2.3-5.7h1.9zm8.7 2.1q0 1.7-.7 2.7-.8 1-2 1-.9 0-1.5-.5-.6-.4-1-1.3-.3-.8-.3-2 0-1.7.7-2.6.8-1 2-1 1.3 0 2 1 .8 1 .8 2.7zm-3.8 0q0 1 .3 1.7.2.5.8.5 1 0 1-2.2 0-1.1-.3-1.7-.2-.6-.7-.6-.6 0-.8.6-.3.6-.3 1.7zm8.9 3.5-.2-.9h-.1q-.3.5-.7.8-.4.3-1 .3-1 0-1.5-.7-.5-.6-.5-2V7.2h1.8v4.3q0 .7.2 1.1.1.4.6.4t.8-.5q.2-.6.2-1.9V7.1H43v7.1zm11 0-.7-4-.3-1.8-.2 1.2-.8 4.6h-2.2l-1.4-7h1.7l.7 3.8.2 2 .1-1 .1-1 .7-3.9h2.2l.7 4 .2 1.9.3-2 .7-3.9h1.6l-1.4 7.1Zm9.8-3.5q0 1.7-.8 2.7-.7 1-2 1-.8 0-1.5-.5-.6-.4-1-1.3-.3-.8-.3-2 0-1.7.8-2.6.7-1 2-1t2 1q.8 1 .8 2.7zm-3.8 0q0 1 .2 1.7.3.5.8.5 1 0 1-2.2 0-1.1-.2-1.7-.3-.6-.8-.6t-.8.6q-.2.6-.2 1.7zm8.5 3.5V10q0-.8-.2-1.2-.2-.4-.6-.4-.5 0-.8.6-.2.5-.2 1.8v3.4h-1.7v-7h1.3l.2.8h.1q.2-.5.7-.7.4-.3 1-.3 1 0 1.4.7.5.6.5 1.9v4.6zM72 4.9V5q-.3 1.3-1 3.1h-1.4l.7-3.2zm3.4 8.1.7-.2V14q-.4.3-1.2.3-1 0-1.4-.6-.4-.5-.4-1.6V8.5h-.7v-.8l.9-.6.4-1.5h1V7h1.4v1.4h-1.3v3.7q0 .7.6.7zm8.1-4.5h-1.1v5.7h-1.7V8.5h-.9v-.9l.9-.5v-.5q0-1.2.5-1.8.5-.6 1.5-.6.7 0 1.3.3l-.4 1.3-.7-.1q-.3 0-.4.2l-.1.7v.5h1.1zm2.5 5.7h-1.7v-7H86zm-1.8-9q0-.4.3-.6.2-.3.7-.3.4 0 .6.3.3.2.3.7 0 .4-.3.6-.2.3-.6.3-.5 0-.7-.3-.3-.2-.3-.6Zm6.8 9V10q0-.8-.2-1.2-.2-.4-.6-.4-.5 0-.8.6-.2.5-.2 1.8v3.4h-1.7v-7h1.3l.2.8h.1q.3-.5.7-.7.4-.3 1-.3 1 0 1.4.7.5.6.5 1.9v4.6zm5 .2q-1 0-1.6-1-.5-1-.5-2.7 0-1.7.5-2.7.6-1 1.6-1l.8.2q.4.3.7.8V4.3h1.7v10h-1.3l-.3-1q-.6 1-1.6 1zm.5-1.5q.5 0 .7-.4.2-.4.3-1.6v-.2q0-1.2-.3-1.7-.2-.5-.7-.5-.5 0-.7.5-.2.6-.2 1.7t.2 1.7q.3.5.7.5zm14.5 1.3V10q0-1.6-.8-1.6-.6 0-.8.6-.3.6-.3 1.8v3.4h-1.7V10q0-1.6-.8-1.6-.5 0-.8.6-.2.5-.2 1.8v3.4h-1.7v-7h1.3l.2.8h.1q.3-.5.7-.8l1-.2q1.3 0 1.7 1.2.6-1.2 1.8-1.2 1 0 1.5.7.5.6.5 1.9v4.6zm5.6.2q-1.3 0-2-1-.8-1-.8-2.7 0-1.7.7-2.7.7-1 2-1 1 0 1.7.8.7.9.7 2.4v1h-3.4q0 .9.4 1.3.4.5 1 .5.8 0 1.7-.5v1.4q-.8.5-2 .5zm-.2-6.1q-.4 0-.6.4l-.3 1.2h1.7q0-.8-.2-1.2-.2-.4-.6-.4zM30.7 25q0 1.8-.7 2.8-.7 1-2 1-.9 0-1.5-.5-.6-.4-1-1.2-.3-.9-.3-2 0-1.7.7-2.7.8-1 2-1 1.3 0 2 1 .8 1 .8 2.7zM27 25q0 1.2.2 1.8.2.5.8.5 1 0 1-2.2 0-1.1-.2-1.7-.3-.5-.8-.5-.6 0-.8.5-.2.6-.2 1.7zm8.5 3.7v-4.3q0-.8-.2-1.2-.2-.3-.6-.3-.6 0-.8.5-.3.5-.3 1.8v3.5H32v-7.2h1.4l.2 1h.1q.2-.5.7-.8.4-.3 1-.3 1 0 1.4.7.5.6.5 2v4.6zm8.2 0h-1.8v-9.4h4.2v1.5h-2.4v2.6H46V25h-2.3zm7 0-.3-1-.9.9q-.4.2-1 .2-.8 0-1.2-.6-.5-.6-.5-1.6 0-1.2.6-1.7.7-.6 1.9-.6h1v-.6q0-1-1-1-.6 0-1.4.5l-.6-1.1q1-.7 2.3-.7 1.2 0 1.7.6.6.7.6 1.9v4.8zm-1.5-1.2q.5 0 .8-.5.2-.4.2-1v-.7h-.5q-.6 0-.8.4-.3.3-.3.9 0 .9.6.9zm6.5 1.3q-1.3 0-2-1-.6-.9-.6-2.7 0-1.8.6-2.8.6-.9 2-.9l.8.1.8.4-.5 1.3q-.6-.3-1-.3-.5 0-.8.5-.2.6-.2 1.7t.2 1.7q.3.5.8.5.7 0 1.4-.4v1.5q-.7.4-1.5.4zm5.1 0q-1.3 0-2.1-1t-.8-2.6q0-1.8.7-2.8.7-1 2-1 1.1 0 1.8.9.7.8.7 2.3v1h-3.4q0 .9.3 1.4.4.4 1 .4.9 0 1.8-.5v1.4q-.8.5-2 .5zm-.2-6q-.4 0-.6.3-.3.4-.3 1.2h1.7q0-.8-.2-1.2-.3-.4-.6-.4Zm6.8-1.4q1 0 1.6 1 .5 1 .5 2.7 0 1.8-.5 2.7-.6 1-1.6 1-.5 0-.8-.2-.4-.2-.7-.7h-.1l-.3.8h-1.3v-10H66v3.8q.3-.6.7-.9l.8-.2zm-.6 1.5q-.4 0-.7.4-.2.5-.2 1.6v.2q0 1.2.2 1.7.3.5.8.5.9 0 .9-2.2t-1-2.2zM76 25q0 1.8-.8 2.8-.7 1-2 1-.8 0-1.4-.5-.7-.4-1-1.2-.3-.9-.3-2 0-1.7.7-2.7.7-1 2-1t2 1q.8 1 .8 2.7zm-3.8 0q0 1.2.2 1.8.3.5.8.5 1 0 1-2.2 0-1.1-.2-1.7-.2-.5-.8-.5-.5 0-.8.5-.2.6-.2 1.7zm10.3 0q0 1.8-.8 2.8-.7 1-2 1-.8 0-1.5-.5-.6-.4-1-1.2-.3-.9-.3-2 0-1.7.8-2.7.7-1 2-1t2 1q.8 1 .8 2.7zm-3.8 0q0 1.2.2 1.8.3.5.8.5 1 0 1-2.2 0-1.1-.2-1.7-.3-.5-.8-.5t-.8.5q-.2.6-.2 1.7zm6.6-.2.5-.8 1.4-2.5H89l-1.8 3 1.9 4.2h-1.8l-1.3-3-.6.6v2.4h-1.7v-10h1.7v4.7l-.1 1.4z" style="line-height:1.10099995;-inkscape-font-specification:'Open Sans Condensed, Bold Condensed'" transform="translate(13.8 5.2)" aria-label="You won’t find me on Facebook"/></g></svg>
